<?xml version="1.0" encoding="UTF-8" standalone="no"?>
<!DOCTYPE svg PUBLIC "-//W3C//DTD SVG 1.1//EN"
 "http://www.w3.org/Graphics/SVG/1.1/DTD/svg11.dtd">
<!-- Generated by graphviz version 2.38.0 (20140413.2041)
 -->
<!-- Title: Network Pages: 1 -->
<svg width="205pt" height="187pt"
 viewBox="0.00 0.00 204.69 187.40" xmlns="http://www.w3.org/2000/svg" xmlns:xlink="http://www.w3.org/1999/xlink">
<g id="graph0" class="graph" transform="scale(1 1) rotate(0) translate(4 183.396)">
<title>Network</title>
<polygon fill="white" stroke="none" points="-4,4 -4,-183.396 200.691,-183.396 200.691,4 -4,4"/>
<!-- In1 -->
<g id="node1" class="node"><title>In1</title>
<g id="a_node1"><a xlink:title="In1">
<ellipse fill="none" stroke="#7f7e00" cx="26.6476" cy="-156.648" rx="22.9987" ry="22.9987"/>
<text text-anchor="middle" x="26.6476" y="-152.948" font-family="Times New Roman,serif" font-size="14.00">In1</text>
</a>
</g>
</g>
<!-- In2 -->
<g id="node2" class="node"><title>In2</title>
<g id="a_node2"><a xlink:title="In2">
<ellipse fill="none" stroke="#7f7e00" cx="26.6476" cy="-93.6476" rx="22.9987" ry="22.9987"/>
<text text-anchor="middle" x="26.6476" y="-89.9476" font-family="Times New Roman,serif" font-size="14.00">In2</text>
</a>
</g>
</g>
<!-- In1&#45;&gt;In2 -->
<!-- 6.0 -->
<g id="node5" class="node"><title>6.0</title>
<g id="a_node5"><a xlink:title="6.0">
<ellipse fill="none" stroke="#006a7f" cx="100.295" cy="-93.6476" rx="11" ry="11"/>
</a>
</g>
</g>
<!-- In1&#45;&gt;6.0 -->
<g id="edge5" class="edge"><title>In1&#45;&gt;6.0</title>
<g id="a_edge5"><a xlink:title="&#45;1">
<path fill="none" stroke="#b20000" stroke-width="1.7" d="M44.2651,-142.036C56.2404,-131.506 72.2811,-117.401 83.9532,-107.138"/>
<polygon fill="#b20000" stroke="#b20000" stroke-width="1.7" points="86.3611,-109.681 91.5596,-100.45 81.7387,-104.425 86.3611,-109.681"/>
</a>
</g>
</g>
<!-- 14.0 -->
<g id="node7" class="node"><title>14.0</title>
<g id="a_node7"><a xlink:title="14.0">
<ellipse fill="none" stroke="#006a7f" cx="100.295" cy="-140.648" rx="11" ry="11"/>
</a>
</g>
</g>
<!-- In1&#45;&gt;14.0 -->
<g id="edge11" class="edge"><title>In1&#45;&gt;14.0</title>
<g id="a_edge11"><a xlink:title="0.6009018423276443">
<path fill="none" stroke="#23b223" stroke-width="1.10135" d="M49.1443,-151.847C58.7432,-149.704 69.9852,-147.193 79.3899,-145.093"/>
<polygon fill="#23b223" stroke="#23b223" stroke-width="1.10135" points="80.3809,-148.458 89.3777,-142.862 78.8552,-141.626 80.3809,-148.458"/>
</a>
</g>
</g>
<!-- Bias -->
<g id="node3" class="node"><title>Bias</title>
<g id="a_node3"><a xlink:title="Bias">
<ellipse fill="none" stroke="#7f7e00" cx="26.6476" cy="-26.6476" rx="26.7961" ry="26.7961"/>
<text text-anchor="middle" x="26.6476" y="-22.9476" font-family="Times New Roman,serif" font-size="14.00">Bias</text>
</a>
</g>
</g>
<!-- In2&#45;&gt;Bias -->
<!-- In2&#45;&gt;6.0 -->
<g id="edge8" class="edge"><title>In2&#45;&gt;6.0</title>
<g id="a_edge8"><a xlink:title="1">
<path fill="none" stroke="#00b200" stroke-width="1.7" d="M49.5336,-93.6476C58.8959,-93.6476 69.7628,-93.6476 78.9489,-93.6476"/>
<polygon fill="#00b200" stroke="#00b200" stroke-width="1.7" points="79.106,-97.1477 89.106,-93.6476 79.106,-90.1477 79.106,-97.1477"/>
</a>
</g>
</g>
<!-- Bias&#45;&gt;6.0 -->
<g id="edge3" class="edge"><title>Bias&#45;&gt;6.0</title>
<g id="a_edge3"><a xlink:title="&#45;0.23049917492902128">
<path fill="none" stroke="#b24444" stroke-width="0.545749" d="M46.8479,-44.6024C58.607,-55.5987 73.4366,-69.4664 84.3241,-79.6476"/>
<polygon fill="#b24444" stroke="#b24444" stroke-width="0.545749" points="82.0706,-82.3322 91.7652,-86.6061 86.8518,-77.2194 82.0706,-82.3322"/>
</a>
</g>
</g>
<!-- Bias&#45;&gt;14.0 -->
<g id="edge9" class="edge"><title>Bias&#45;&gt;14.0</title>
<g id="a_edge9"><a xlink:title="1">
<path fill="none" stroke="#00b200" stroke-width="1.7" d="M43.4739,-47.4938C46.8095,-52.0924 50.241,-56.9842 53.2953,-61.6476 66.5451,-81.8782 80.3189,-106.014 89.2987,-122.239"/>
<polygon fill="#00b200" stroke="#00b200" stroke-width="1.7" points="86.3439,-124.13 94.2228,-131.213 92.4808,-120.762 86.3439,-124.13"/>
</a>
</g>
</g>
<!-- Out -->
<g id="node4" class="node"><title>Out</title>
<g id="a_node4"><a xlink:title="Out">
<ellipse fill="none" stroke="#00057f" cx="171.993" cy="-147.648" rx="24.8972" ry="24.8972"/>
<text text-anchor="middle" x="171.993" y="-143.948" font-family="Times New Roman,serif" font-size="14.00">Out</text>
</a>
</g>
</g>
<!-- 6.0&#45;&gt;Out -->
<g id="edge4" class="edge"><title>6.0&#45;&gt;Out</title>
<g id="a_edge4"><a xlink:title="1">
<path fill="none" stroke="#00b200" stroke-width="1.7" d="M109.564,-100.054C118.002,-106.592 131.558,-117.095 143.792,-126.573"/>
<polygon fill="#00b200" stroke="#00b200" stroke-width="1.7" points="141.922,-129.552 151.971,-132.91 146.209,-124.018 141.922,-129.552"/>
</a>
</g>
</g>
<!-- 7.0 -->
<g id="node6" class="node"><title>7.0</title>
<g id="a_node6"><a xlink:title="7.0">
<ellipse fill="none" stroke="#006a7f" cx="171.993" cy="-93.6476" rx="11" ry="11"/>
</a>
</g>
</g>
<!-- 6.0&#45;&gt;7.0 -->
<g id="edge6" class="edge"><title>6.0&#45;&gt;7.0</title>
<g id="a_edge6"><a xlink:title="0.5621202320017872">
<path fill="none" stroke="#27b227" stroke-width="1.04318" d="M110.407,-88.9164C120.785,-86.8253 138.043,-86.3587 151.491,-87.5167"/>
<polygon fill="#27b227" stroke="#27b227" stroke-width="1.04318" points="151.282,-91.0197 161.657,-88.8716 152.207,-84.0811 151.282,-91.0197"/>
</a>
</g>
</g>
<!-- 7.0&#45;&gt;6.0 -->
<g id="edge7" class="edge"><title>7.0&#45;&gt;6.0</title>
<g id="a_edge7"><a xlink:title="0.9872097268287956">
<path fill="none" stroke="#01b201" stroke-width="1.68081" d="M161.657,-98.4237C151.18,-100.491 133.901,-100.935 120.508,-99.7533"/>
<polygon fill="#01b201" stroke="#01b201" stroke-width="1.68081" points="120.788,-96.2592 110.407,-98.3789 119.844,-103.195 120.788,-96.2592"/>
</a>
</g>
</g>
<!-- 14.0&#45;&gt;Out -->
<g id="edge12" class="edge"><title>14.0&#45;&gt;Out</title>
<g id="a_edge12"><a xlink:title="&#45;0.670302097427555">
<path fill="none" stroke="#b21d1d" stroke-width="1.20545" d="M111.281,-141.651C118.137,-142.339 127.67,-143.297 137.109,-144.245"/>
<polygon fill="#b21d1d" stroke="#b21d1d" stroke-width="1.20545" points="136.884,-147.739 147.184,-145.256 137.584,-140.774 136.884,-147.739"/>
</a>
</g>
</g>
<!-- 14.0&#45;&gt;7.0 -->
<g id="edge10" class="edge"><title>14.0&#45;&gt;7.0</title>
<g id="a_edge10"><a xlink:title="&#45;0.34966785375794185">
<path fill="none" stroke="#b23a3a" stroke-width="0.724502" d="M109.842,-134.885C120.71,-127.555 139.74,-114.723 153.692,-105.315"/>
<polygon fill="#b23a3a" stroke="#b23a3a" stroke-width="0.724502" points="156.043,-107.951 162.377,-99.4579 152.129,-102.147 156.043,-107.951"/>
</a>
</g>
</g>
</g>
</svg>
